<svg xmlns="http://www.w3.org/2000/svg" width="100%" height="100%"
viewBox="0 0 1080 1920" preserveAspectRatio="xMidYMid slice">
  <rect width="100%" height="100%" fill="#ffffff"/>
  <g transform="translate(540.0,960.0) rotate(-8) translate(-540.0,-960.0)"
     stroke="#0f172a" stroke-opacity="0.08" fill="none" stroke-linecap="round" stroke-linejoin="round"><line x1="80.0" y1="864.0" x2="1000.0" y2="864.0" stroke-width="16"/>
<line x1="80.0" y1="912.0" x2="1000.0" y2="912.0" stroke-width="16"/>
<line x1="80.0" y1="960.0" x2="1000.0" y2="960.0" stroke-width="16"/>
<line x1="80.0" y1="1008.0" x2="1000.0" y2="1008.0" stroke-width="16"/>
<line x1="80.0" y1="1056.0" x2="1000.0" y2="1056.0" stroke-width="16"/>
<line x1="994.0" y1="828.0" x2="994.0" y2="1092.0" stroke-width="20"/>
<line x1="466.4" y1="864.0" x2="466.4" y2="1056.0" stroke-width="10"/>
<ellipse cx="245.6" cy="936.0" rx="38" ry="28" transform="rotate(-20 245.6 936.0)" stroke-width="14"/>
<ellipse cx="374.40000000000003" cy="912.0" rx="38" ry="28" transform="rotate(-20 374.40000000000003 912.0)" stroke-width="14"/>
<line x1="277.6" y1="932.0" x2="277.6" y2="796.0" stroke-width="14"/>
<line x1="406.40000000000003" y1="908.0" x2="406.40000000000003" y2="772.0" stroke-width="14"/>
<path d="M 277.6 796.0 L 406.40000000000003 772.0" stroke-width="20"/>
<ellipse cx="613.5999999999999" cy="960.0" rx="38" ry="28" transform="rotate(-20 613.5999999999999 960.0)" stroke-width="14"/>
<line x1="581.5999999999999" y1="964.0" x2="581.5999999999999" y2="1080.0" stroke-width="14"/>
<ellipse cx="742.4" cy="936.0" rx="26.6" ry="19.6" transform="rotate(-20 742.4 936.0)" stroke-width="10"/>
<line x1="765.0" y1="934.0" x2="765.0" y2="826.0" stroke-width="10"/>
<path d="M 765.0 836.0 q 40 -30 72 -10" stroke-width="10"/>
<circle cx="540.0" cy="880.0" r="420" stroke-width="10"/>
</g>
</svg>